# xmcd
#
# Track frame offsets: 
#        150
#        13849
#        31160
#        50246
#        71689
#        88136
#        105822
#        111419
#        138554
#        156355
#        172857
#        190231
#        209371
#        219297
#        243534
#
# Disc length: 3474 seconds
#
# Revision: 3
# Processed by: cddbd v1.5.2PL0 Copyright (c) Steve Scherf et al.
# Submitted via: ExactAudioCopy v0.99pb5
#
DISCID=d50d900f
DTITLE=Tragedy Khadafi - Still Reporting
DYEAR=2003
DGENRE=Hip-Hop
TTITLE0=Still Reporting
TTITLE1=Neva Die Alone Pt.2
TTITLE2=The Code (feat. Havoc and Littles)
TTITLE3=Hood (feat. Christ Castro)
TTITLE4=Hood Love (feat. Rashida)
TTITLE5=The Message (Aura Check)
TTITLE6=Wake The Dead (Black Aura Skit)
TTITLE7=Walk Wit Me (911)
TTITLE8=U Make Me (feat. Capone, Littles and V12)
TTITLE9=The Truth (feat. Christ Castro)
TTITLE10=Fall Back (feat. Havoc)
TTITLE11=Cant Figure (feat. V12)
TTITLE12=Eloheem
TTITLE13=Crying On The Inside
TTITLE14=Bonus Track
EXTD=
EXTT0=
EXTT1=
EXTT2=
EXTT3=
EXTT4=
EXTT5=
EXTT6=
EXTT7=
EXTT8=
EXTT9=
EXTT10=
EXTT11=
EXTT12=
EXTT13=
EXTT14=
PLAYORDER=
